<svg width="314" height="133" viewBox="0 0 314 133" fill="none" xmlns="http://www.w3.org/2000/svg">
<path d="M8.92832 131.915C9.43347 132.571 10.3753 132.694 11.0318 132.189L21.7316 123.957C22.3882 123.452 22.511 122.51 22.0058 121.853C21.5007 121.197 20.5589 121.074 19.9023 121.579L10.3914 128.896L3.07414 119.386C2.56899 118.729 1.62721 118.606 0.970616 119.111C0.314024 119.616 0.191257 120.558 0.696407 121.215L8.92832 131.915ZM134.617 17.3121L134.499 15.8168L134.617 17.3121ZM272.117 11.3286L272.014 12.8251L272.066 12.8286H272.117V11.3286ZM313.178 12.3893C313.764 11.8035 313.764 10.8537 313.178 10.2679L303.632 0.721995C303.046 0.136209 302.096 0.136209 301.511 0.721995C300.925 1.30778 300.925 2.25753 301.511 2.84332L309.996 11.3286L301.511 19.8139C300.925 20.3997 300.925 21.3494 301.511 21.9352C302.096 22.521 303.046 22.521 303.632 21.9352L313.178 12.3893ZM10.1172 131L11.6046 131.194C15.8869 98.3433 47.5534 25.7233 134.736 18.8074L134.617 17.3121L134.499 15.8168C45.3601 22.8879 13.0141 97.1726 8.62977 130.806L10.1172 131ZM134.617 17.3121L134.736 18.8074C222.725 11.8276 262.465 12.1683 272.014 12.8251L272.117 11.3286L272.22 9.83213C262.436 9.15921 222.51 8.83522 134.499 15.8168L134.617 17.3121ZM272.117 11.3286V12.8286H312.117V11.3286V9.8286H272.117V11.3286Z" fill="#37465A"/>
</svg>
