<svg width="192" height="128" viewBox="0 0 192 128" fill="none" xmlns="http://www.w3.org/2000/svg">
<path d="M8.80963 126.913C9.31369 127.57 10.2553 127.694 10.9127 127.19L21.6261 118.976C22.2835 118.472 22.4078 117.53 21.9037 116.873C21.3997 116.216 20.4581 116.091 19.8007 116.595L10.2777 123.897L2.97612 114.374C2.47206 113.717 1.53048 113.592 0.873056 114.096C0.215631 114.6 0.0913105 115.542 0.595378 116.199L8.80963 126.913ZM84.2053 14.7144L84.3224 16.2098L84.2053 14.7144ZM166.159 11.1934L166.057 12.6899L166.108 12.6934H166.159V11.1934ZM191.061 12.254C191.646 11.6682 191.646 10.7185 191.061 10.1327L181.515 0.586761C180.929 0.000975609 179.979 0.000975609 179.393 0.586761C178.808 1.17255 178.808 2.1223 179.393 2.70808L187.879 11.1934L179.393 19.6786C178.808 20.2644 178.808 21.2142 179.393 21.8C179.979 22.3858 180.929 22.3858 181.515 21.8L191.061 12.254ZM10 126L11.4871 126.196C12.7645 116.522 18.1469 89.8875 29.7245 65.2019C41.3507 40.4125 58.9263 18.1988 84.3224 16.2098L84.2053 14.7144L84.0882 13.219C56.9383 15.3453 38.7026 38.9937 27.0084 63.928C15.2655 88.9661 9.81832 115.917 8.51291 125.804L10 126ZM84.2053 14.7144L84.3224 16.2098C136.762 12.1028 160.412 12.3066 166.057 12.6899L166.159 11.1934L166.261 9.69681C160.383 9.29771 136.549 9.11029 84.0882 13.219L84.2053 14.7144ZM166.159 11.1934V12.6934H190V11.1934V9.69336H166.159V11.1934Z" fill="#37465A"/>
</svg>
