<svg width="23" height="132" viewBox="0 0 23 132" fill="none" xmlns="http://www.w3.org/2000/svg">
<path d="M12.5607 0.93934C11.9749 0.353553 11.0251 0.353553 10.4393 0.93934L0.893398 10.4853C0.307611 11.0711 0.307611 12.0208 0.893398 12.6066C1.47919 13.1924 2.42893 13.1924 3.01472 12.6066L11.5 4.12132L19.9853 12.6066C20.5711 13.1924 21.5208 13.1924 22.1066 12.6066C22.6924 12.0208 22.6924 11.0711 22.1066 10.4853L12.5607 0.93934ZM10.4393 131.561C11.0251 132.146 11.9749 132.146 12.5607 131.561L22.1066 122.015C22.6924 121.429 22.6924 120.479 22.1066 119.893C21.5208 119.308 20.5711 119.308 19.9853 119.893L11.5 128.379L3.01472 119.893C2.42893 119.308 1.47919 119.308 0.893398 119.893C0.307611 120.479 0.307611 121.429 0.893398 122.015L10.4393 131.561ZM11.5 2H10V130.5H11.5H13V2H11.5Z" fill="#37465A"/>
</svg>
