<svg width="125" height="124" viewBox="0 0 125 124" fill="none" xmlns="http://www.w3.org/2000/svg">
<circle cx="62.1174" cy="62" r="62" fill="#E3EAF4"/>
<path d="M110.117 62.5C110.117 88.7335 88.8507 110 62.6172 110C36.3837 110 15.1172 88.7335 15.1172 62.5C15.1172 36.2665 36.3837 15 62.6172 15C88.8507 15 110.117 36.2665 110.117 62.5Z" fill="#424242"/>
<path d="M62.6172 15C50.0194 15 37.9376 20.0044 29.0296 28.9124C20.1216 37.8204 15.1172 49.9022 15.1172 62.5C15.1172 75.0978 20.1216 87.1796 29.0296 96.0876C37.9376 104.996 50.0194 110 62.6172 110C75.215 110 87.2968 104.996 96.2048 96.0876C105.113 87.1796 110.117 75.0978 110.117 62.5C110.117 49.9022 105.113 37.8204 96.2048 28.9124C87.2968 20.0044 75.215 15 62.6172 15ZM62.6172 24.5C67.862 24.5 72.1172 28.7592 72.1172 34C72.116 36.5181 71.1151 38.9328 69.3345 40.7133C68.643 41.4065 67.8486 41.9887 66.9793 42.4392L78.7672 90.996L62.6172 100.508L46.4672 90.996L58.2551 42.4392C57.3886 41.988 56.5969 41.4059 55.9078 40.7133C54.1281 38.9338 53.1273 36.5207 53.1251 34.004C53.1241 31.4851 54.1234 29.0689 55.9034 27.2867C57.6834 25.5045 60.0983 24.5021 62.6172 24.5Z" fill="#F7F7F7"/>
</svg>
