<svg width="139" height="137" viewBox="0 0 139 137" fill="none" xmlns="http://www.w3.org/2000/svg">
<ellipse cx="69.1174" cy="68.5" rx="69" ry="68.5" fill="#E3EAF4"/>
<path d="M122.117 69.5C122.117 98.4949 98.6121 122 69.6172 122C40.6222 122 17.1172 98.4949 17.1172 69.5C17.1172 40.5051 40.6222 17 69.6172 17C98.6121 17 122.117 40.5051 122.117 69.5Z" fill="#F7F7F7"/>
<path fill-rule="evenodd" clip-rule="evenodd" d="M41.3494 37.2192C37.1172 41.4348 37.1172 48.2244 37.1172 61.8V76.2C37.1172 89.7756 37.1172 96.5652 41.3494 100.781C45.5816 104.996 52.3886 105 66.0061 105H73.2283C86.8458 105 93.6564 105 97.885 100.781C102.114 96.5616 102.117 89.7756 102.117 76.2V61.8C102.117 48.2244 102.117 41.4348 97.885 37.2192C93.6527 33.0036 86.8458 33 73.2283 33H66.0061C52.3886 33 45.578 33 41.3494 37.2192ZM55.1727 59.1C54.4544 59.1 53.7656 59.3845 53.2577 59.8908C52.7498 60.3972 52.4644 61.0839 52.4644 61.8C52.4644 62.5161 52.7498 63.2028 53.2577 63.7092C53.7656 64.2155 54.4544 64.5 55.1727 64.5H84.0616C84.7799 64.5 85.4688 64.2155 85.9767 63.7092C86.4846 63.2028 86.77 62.5161 86.77 61.8C86.77 61.0839 86.4846 60.3972 85.9767 59.8908C85.4688 59.3845 84.7799 59.1 84.0616 59.1H55.1727ZM55.1727 73.5C54.4544 73.5 53.7656 73.7845 53.2577 74.2908C52.7498 74.7972 52.4644 75.4839 52.4644 76.2C52.4644 76.9161 52.7498 77.6028 53.2577 78.1092C53.7656 78.6155 54.4544 78.9 55.1727 78.9H73.2283C73.9466 78.9 74.6355 78.6155 75.1434 78.1092C75.6513 77.6028 75.9366 76.9161 75.9366 76.2C75.9366 75.4839 75.6513 74.7972 75.1434 74.2908C74.6355 73.7845 73.9466 73.5 73.2283 73.5H55.1727Z" fill="#424242"/>
</svg>
