<svg width="66" height="72" viewBox="0 0 66 72" fill="none" xmlns="http://www.w3.org/2000/svg">
<path d="M64.1172 38.0171C64.1172 55.1456 50.238 69.031 33.1172 69.031C15.9964 69.031 2.11719 55.1456 2.11719 38.0171C2.11719 20.8886 15.9964 7.00317 33.1172 7.00317C50.238 7.00317 64.1172 20.8886 64.1172 38.0171Z" fill="#F7F7F7"/>
<path fill-rule="evenodd" clip-rule="evenodd" d="M4.34941 4.2192C0.117187 8.4348 0.117188 15.2244 0.117188 28.8V43.2C0.117188 56.7756 0.117187 63.5652 4.34941 67.7808C8.58163 71.9964 15.3886 72 29.0061 72H36.2283C49.8458 72 56.6564 72 60.885 67.7808C65.1136 63.5616 65.1172 56.7756 65.1172 43.2V28.8C65.1172 15.2244 65.1172 8.4348 60.885 4.2192C56.6527 0.00359974 49.8458 0 36.2283 0H29.0061C15.3886 0 8.57802 -4.29153e-07 4.34941 4.2192ZM18.1727 26.1C17.4544 26.1 16.7656 26.3845 16.2577 26.8908C15.7498 27.3972 15.4644 28.0839 15.4644 28.8C15.4644 29.5161 15.7498 30.2028 16.2577 30.7092C16.7656 31.2155 17.4544 31.5 18.1727 31.5H47.0616C47.7799 31.5 48.4688 31.2155 48.9767 30.7092C49.4846 30.2028 49.77 29.5161 49.77 28.8C49.77 28.0839 49.4846 27.3972 48.9767 26.8908C48.4688 26.3845 47.7799 26.1 47.0616 26.1H18.1727ZM18.1727 40.5C17.4544 40.5 16.7656 40.7845 16.2577 41.2908C15.7498 41.7972 15.4644 42.4839 15.4644 43.2C15.4644 43.9161 15.7498 44.6028 16.2577 45.1092C16.7656 45.6155 17.4544 45.9 18.1727 45.9H36.2283C36.9466 45.9 37.6355 45.6155 38.1434 45.1092C38.6513 44.6028 38.9366 43.9161 38.9366 43.2C38.9366 42.4839 38.6513 41.7972 38.1434 41.2908C37.6355 40.7845 36.9466 40.5 36.2283 40.5H18.1727Z" fill="#424242"/>
</svg>
