<svg width="145" height="118" viewBox="0 0 145 118" fill="none" xmlns="http://www.w3.org/2000/svg">
<path d="M40.1849 6.54726C40.3783 5.74211 39.8819 4.93181 39.0762 4.73741L25.9467 1.56949C25.141 1.37509 24.3311 1.8702 24.1378 2.67535C23.9444 3.4805 24.4408 4.2908 25.2465 4.4852L36.9172 7.30113L34.1164 18.964C33.923 19.7691 34.4194 20.5794 35.2251 20.7738C36.0308 20.9682 36.8407 20.4731 37.034 19.668L40.1849 6.54726ZM38.7261 6.19527L37.9421 4.91551C18.7886 16.6248 2.10875 40.782 5.24964 66.7904L6.73907 66.6127L8.22851 66.435C5.2659 41.9028 21.0583 18.7553 39.5101 7.47502L38.7261 6.19527ZM6.73907 66.6127L5.24964 66.7904C6.82589 79.8427 13.5332 90.2873 20.4913 98.2503C23.9735 102.235 27.538 105.621 30.5801 108.411C33.6722 111.247 36.1076 113.368 37.5128 114.957L38.6362 113.965L39.7596 112.972C38.2161 111.227 35.5716 108.921 32.6069 106.202C29.5923 103.437 26.1232 100.139 22.7498 96.2787C15.9966 88.5503 9.704 78.6529 8.22851 66.435L6.73907 66.6127Z" fill="#424242"/>
<path d="M104.628 111.453C104.435 112.258 104.931 113.068 105.737 113.263L118.866 116.431C119.672 116.625 120.482 116.13 120.675 115.325C120.869 114.52 120.372 113.709 119.566 113.515L107.896 110.699L110.697 99.0361C110.89 98.231 110.394 97.4207 109.588 97.2263C108.782 97.0319 107.972 97.527 107.779 98.3321L104.628 111.453ZM106.087 111.805L106.871 113.085C126.024 101.375 142.704 77.2181 139.563 51.2097L138.074 51.3874L136.584 51.5651C139.547 76.0973 123.755 99.2448 105.303 110.525L106.087 111.805ZM138.074 51.3874L139.563 51.2097C137.987 38.1573 131.28 27.7127 124.322 19.7498C120.839 15.7646 117.275 12.3792 114.233 9.58906C111.141 6.75302 108.705 4.6316 107.3 3.04268L106.177 4.03517L105.053 5.02766C106.597 6.77289 109.241 9.07878 112.206 11.798C115.221 14.563 118.69 17.8607 122.063 21.7213C128.816 29.4498 135.109 39.3471 136.584 51.5651L138.074 51.3874Z" fill="#424242"/>
<path d="M80.4505 53.7H84.1172C84.1172 48.5934 79.0664 46.2642 74.9505 45.7278V42H71.2839V45.7278C67.168 46.2642 62.1172 48.5934 62.1172 53.7C62.1172 58.5708 67.0049 61.1034 71.2839 61.674V70.62C68.6292 70.1682 65.7839 68.7768 65.7839 66.3H62.1172C62.1172 70.9602 66.563 73.7142 71.2839 74.2848V78H74.9505V74.274C79.0664 73.7376 84.1172 71.4066 84.1172 66.3C84.1172 61.1934 79.0664 58.8642 74.9505 58.3278V49.38C77.3889 49.8102 80.4505 51.0738 80.4505 53.7ZM65.7839 53.7C65.7839 51.0738 68.8455 49.8102 71.2839 49.38V58.0182C68.7704 57.5628 65.7839 56.2146 65.7839 53.7ZM80.4505 66.3C80.4505 68.9262 77.3889 70.1898 74.9505 70.62V61.98C77.3889 62.4102 80.4505 63.6738 80.4505 66.3Z" fill="#424242"/>
</svg>
