<svg width="116" height="115" viewBox="0 0 116 115" fill="none" xmlns="http://www.w3.org/2000/svg">
<path d="M115.117 57.5C115.117 89.2564 89.3736 115 57.6172 115C25.8608 115 0.117188 89.2564 0.117188 57.5C0.117188 25.7436 25.8608 0 57.6172 0C89.3736 0 115.117 25.7436 115.117 57.5Z" fill="#E3EAF4"/>
<path d="M50.6172 94V68.45H43.1172V46.55C43.1172 44.5425 43.8522 42.8246 45.3222 41.3962C46.7922 39.9678 48.5572 39.2525 50.6172 39.25H65.6172C67.6797 39.25 69.4459 39.9654 70.9159 41.3962C72.3859 42.827 73.1197 44.5449 73.1172 46.55V68.45H65.6172V94H50.6172ZM58.1172 35.6C56.0547 35.6 54.2897 34.8858 52.8222 33.4575C51.3547 32.0291 50.6197 30.31 50.6172 28.3C50.6147 26.2901 51.3497 24.5722 52.8222 23.1462C54.2947 21.7203 56.0597 21.0049 58.1172 21C60.1747 20.9952 61.9409 21.7106 63.4159 23.1462C64.8909 24.5819 65.6247 26.2998 65.6172 28.3C65.6097 30.3002 64.8759 32.0194 63.4159 33.4575C61.9559 34.8956 60.1897 35.6098 58.1172 35.6Z" fill="#424242"/>
</svg>
