<svg width="75" height="48" viewBox="0 0 75 48" fill="none" xmlns="http://www.w3.org/2000/svg">
<path d="M0 3.64706C0 1.63284 1.56987 0 3.5064 0H34.9509C36.8874 0 38.4573 1.63284 38.4573 3.64706V44.3529C38.4573 46.3672 36.8874 48 34.9509 48H3.5064C1.56987 48 0 46.3672 0 44.3529V3.64706Z" fill="#D52B1E"/>
<path d="M6.11611 18.8235V8.24922H11.0078C12.6089 8.24922 13.4095 9.08189 13.4095 10.7472V12.7854C13.4095 14.4406 12.6089 15.2681 11.0078 15.2681H7.91366V18.8235H6.11611ZM7.91366 13.567H10.9636C11.3958 13.567 11.6119 13.3423 11.6119 12.8927V10.6093C11.6119 10.17 11.3958 9.95031 10.9636 9.95031H7.91366V13.567Z" fill="white"/>
<path d="M15.4688 18.8235V8.24922H20.3605C21.9616 8.24922 22.7621 9.08189 22.7621 10.7472V12.4789C22.7621 13.7663 22.271 14.5478 21.2887 14.8237L23.0568 18.4251L22.8358 18.8235H21.3034L19.4175 14.9616H17.2663V18.8235H15.4688ZM17.2663 13.2605H20.3163C20.7485 13.2605 20.9646 13.0358 20.9646 12.5862V10.6093C20.9646 10.17 20.7485 9.95031 20.3163 9.95031H17.2663V13.2605Z" fill="white"/>
<path d="M24.818 16.3255V10.7472C24.818 9.08189 25.6185 8.24922 27.2196 8.24922H30.5937C32.1948 8.24922 32.9954 9.08189 32.9954 10.7472V16.3255C32.9954 17.9909 32.1948 18.8235 30.5937 18.8235H27.2196C25.6185 18.8235 24.818 17.9909 24.818 16.3255ZM26.6155 16.4635C26.6155 16.9028 26.8316 17.1224 27.2638 17.1224H30.5495C30.9817 17.1224 31.1978 16.9028 31.1978 16.4635V10.6093C31.1978 10.17 30.9817 9.95031 30.5495 9.95031H27.2638C26.8316 9.95031 26.6155 10.17 26.6155 10.6093V16.4635Z" fill="white"/>
<path d="M6.11611 38V27.4257H7.91366V38H6.11611Z" fill="white"/>
<path d="M10.4183 38V27.4257H12.378L16.8866 34.9656V27.4257H18.6841V38H16.7392L12.2159 30.4601V38H10.4183Z" fill="white"/>
<path d="M20.223 27.7935L20.4588 27.4257H22.0206L24.5401 36.2989H24.82L27.3396 27.4257H28.9161L29.1371 27.7935L26.1314 38H23.214L20.223 27.7935Z" fill="white"/>
<path d="M30.6632 38V27.4257H37.4998V29.1268H32.4608V31.6707H37.0578V33.3718H32.4608V36.2989H37.4998V38H30.6632Z" fill="white"/>
<path d="M39.0415 37.295V36.2989H43.5943C44.0265 36.2989 44.2426 36.0793 44.2426 35.6399V34.4752C44.2426 34.087 44.0756 33.8571 43.7416 33.7856L40.7506 33.1573C39.6112 32.9223 39.0415 32.1254 39.0415 30.7666V29.9237C39.0415 28.2584 39.842 27.4257 41.4431 27.4257H44.8762L45.7455 28.1306V29.1268H41.4873C41.0551 29.1268 40.839 29.3464 40.839 29.7858V30.8125C40.839 31.2008 41.006 31.4306 41.34 31.5022L44.331 32.1152C45.4704 32.3604 46.0401 33.1573 46.0401 34.5059V35.502C46.0401 37.1673 45.2396 38 43.6385 38H39.9108L39.0415 37.295Z" fill="#D52B1E"/>
<path d="M47.2036 29.1268V27.4257H55.4104V29.1268H52.2131V38H50.4008V29.1268H47.2036Z" fill="#D52B1E"/>
<path d="M56.876 35.502V29.9237C56.876 28.2584 57.6765 27.4257 59.2776 27.4257H62.6517C64.2528 27.4257 65.0534 28.2584 65.0534 29.9237V35.502C65.0534 37.1673 64.2528 38 62.6517 38H59.2776C57.6765 38 56.876 37.1673 56.876 35.502ZM58.6735 35.6399C58.6735 36.0793 58.8896 36.2989 59.3218 36.2989H62.6075C63.0397 36.2989 63.2558 36.0793 63.2558 35.6399V29.7858C63.2558 29.3464 63.0397 29.1268 62.6075 29.1268H59.3218C58.8896 29.1268 58.6735 29.3464 58.6735 29.7858V35.6399Z" fill="#D52B1E"/>
<path d="M67.412 38V27.4257H72.3037C73.9048 27.4257 74.7053 28.2584 74.7053 29.9237V31.6554C74.7053 32.9427 74.2142 33.7243 73.2319 34.0002L75 37.6015L74.779 38H73.2467L71.3607 34.1381H69.2095V38H67.412ZM69.2095 32.437H72.2595C72.6917 32.437 72.9078 32.2122 72.9078 31.7627V29.7858C72.9078 29.3464 72.6917 29.1268 72.2595 29.1268H69.2095V32.437Z" fill="#D52B1E"/>
</svg>
