<svg width="31" height="31" viewBox="0 0 31 31" fill="none" xmlns="http://www.w3.org/2000/svg">
<path d="M0 8C0 3.58172 3.58172 0 8 0H23C27.4183 0 31 3.58172 31 8V23C31 27.4183 27.4183 31 23 31H8C3.58172 31 0 27.4183 0 23V8Z" fill="white"/>
<path d="M7.75 10.0576L10.0011 14.0651V16.5096L7.75263 20.5092L7.75 10.0576Z" fill="#5B57A2"/>
<path d="M16.3932 12.6068L18.5026 11.3192L22.8194 11.3152L16.3932 15.2361V12.6068Z" fill="#D90751"/>
<path d="M16.3813 10.034L16.3932 15.3398L14.1369 13.959V6.02778L16.3813 10.034Z" fill="#FAB718"/>
<path d="M22.8194 11.3152L18.5026 11.3192L16.3813 10.034L14.1369 6.02778L22.8194 11.3152Z" fill="#ED6F26"/>
<path d="M16.3932 20.5314V17.9572L14.1369 16.6026L14.1381 24.5416L16.3932 20.5314Z" fill="#63B22F"/>
<path d="M18.4973 19.2555L10.0011 14.0651L7.75 10.0576L22.8103 19.2502L18.4973 19.2555Z" fill="#1487C9"/>
<path d="M14.1381 24.5416L16.3932 20.5314L18.4973 19.2555L22.8103 19.2502L14.1381 24.5416Z" fill="#017F36"/>
<path d="M7.75263 20.5092L14.1553 16.6028L12.0028 15.2873L10.0011 16.5096L7.75263 20.5092Z" fill="#984995"/>
</svg>
