<svg width="62" height="62" viewBox="0 0 62 62" fill="none" xmlns="http://www.w3.org/2000/svg">
<circle cx="31" cy="31" r="30.5" stroke="#363636"/>
<path d="M22.25 17H36.95V20.9487C36.95 23.2031 35.984 25.2277 34.4538 26.609C37.075 27.7347 39.25 29.7332 40.6278 32.2823L41.3068 33.5387L38.8568 34.9315L38.1792 33.6751C37.1285 31.7233 35.4749 30.1852 33.4786 29.3028C31.4823 28.4204 29.2566 28.2438 27.1518 28.8008C25.0469 29.3577 23.1823 30.6167 21.8515 32.3795C20.5206 34.1423 19.7989 36.3089 19.8 38.5385V39.2564C19.8 40.0181 20.095 40.7485 20.6201 41.2871C21.1452 41.8256 21.8574 42.1282 22.6 42.1282H32.4V45H22.6C21.1148 45 19.6904 44.3949 18.6402 43.3177C17.59 42.2406 17 40.7797 17 39.2564V38.5385C16.9993 35.9879 17.7344 33.4942 19.1129 31.3714C20.4913 29.2486 22.4514 27.5915 24.7462 26.609C23.9612 25.9022 23.3324 25.0316 22.9019 24.0554C22.4714 23.0793 22.2492 22.0201 22.25 20.9487V17ZM29.6 25.6154C30.8067 25.6154 31.964 25.1237 32.8173 24.2485C33.6706 23.3734 34.15 22.1864 34.15 20.9487V19.8718H25.05V20.9487C25.05 22.1864 25.5294 23.3734 26.3827 24.2485C27.236 25.1237 28.3933 25.6154 29.6 25.6154ZM35.2 36.3846H45V39.2564H35.2V36.3846ZM35.2 42.1282H45V45H35.2V42.1282Z" fill="#363636"/>
</svg>
