<svg width="62" height="62" viewBox="0 0 62 62" fill="none" xmlns="http://www.w3.org/2000/svg">
<circle cx="31" cy="31" r="30.5" stroke="#363636"/>
<path d="M22.5204 46.6H39.3418C40.8504 46.6 42.0504 45.4017 41.8881 44.0211C40.8405 35.125 34.5882 35.2721 34.5882 31.3C34.5882 27.3279 40.9205 27.5486 41.8873 18.5789C42.0397 17.1975 40.8504 16 39.3418 16H22.5204C21.0118 16 19.8255 17.1975 19.9748 18.5789C20.9417 27.5486 27.2739 27.2543 27.2739 31.3C27.2739 35.3457 21.0217 35.125 19.9748 44.0211C19.8118 45.4017 21.0118 46.6 22.5204 46.6Z" stroke="#363636" stroke-width="2" stroke-linecap="round" stroke-linejoin="round"/>
<path d="M36.3203 22.6667C35.5098 23.5106 34.5439 24.1955 33.6289 24.8787C33.0933 25.2786 32.5428 25.7036 32.1279 26.1511C31.717 26.5944 31.3078 27.1977 31.3076 27.9626V35.991C31.3077 36.9539 31.7953 37.7222 32.373 38.3162C32.9452 38.9044 33.6997 39.4186 34.4395 39.8826C35.2317 40.3794 35.9507 40.7863 36.7021 41.2781C37.4268 41.7523 38.0394 42.2194 38.4844 42.7117C38.7274 42.9807 38.7168 43.2019 38.7002 43.2576C38.6939 43.2784 38.6884 43.2822 38.6816 43.2869C38.6722 43.2934 38.609 43.3337 38.4434 43.3337H23.4551C23.2986 43.3337 23.2286 43.2941 23.207 43.2791C23.1853 43.2638 23.1718 43.2455 23.1631 43.2175C23.1462 43.1635 23.1329 42.9794 23.3545 42.7712L23.3555 42.7722C23.8553 42.3089 24.5057 41.8576 25.2471 41.3875C25.9468 40.9437 26.8043 40.4367 27.5195 39.9656C28.2536 39.482 28.9867 38.9439 29.541 38.3318C30.0999 37.7146 30.5537 36.9366 30.5537 35.991V27.9626C30.5536 27.2058 30.1553 26.6046 29.75 26.1599C29.3416 25.7119 28.7992 25.2864 28.2695 24.8855C27.3657 24.2014 26.405 23.5144 25.5859 22.6667H36.3203Z" stroke="#363636" stroke-width="2"/>
</svg>
