<svg width="62" height="62" viewBox="0 0 62 62" fill="none" xmlns="http://www.w3.org/2000/svg">
<circle cx="31" cy="31" r="30.5" stroke="#363636"/>
<path d="M30.9968 22.4623V31.0777L36.5968 33.8777" stroke="#363636" stroke-width="2" stroke-linecap="round" stroke-linejoin="round"/>
<path d="M44.622 33.2316C43.8642 36.4256 42.0082 39.2519 39.3781 41.2164C36.7481 43.1809 33.5113 44.1587 30.2335 43.979C26.9557 43.7993 23.8453 42.4734 21.4458 40.2331C19.0463 37.9928 17.5104 34.9806 17.1064 31.7228C16.7025 28.465 17.4562 25.1689 19.2358 22.4104C21.0154 19.6519 23.7078 17.6065 26.8424 16.6316C29.9771 15.6567 33.3546 15.8144 36.3848 17.077C39.415 18.3396 41.9052 20.627 43.4201 23.5392" stroke="#363636" stroke-width="2" stroke-linecap="round"/>
<path d="M44.9969 19.2316V24.6162H39.6123" stroke="#363636" stroke-width="2" stroke-linecap="round" stroke-linejoin="round"/>
</svg>
