<svg width="62" height="62" viewBox="0 0 62 62" fill="none" xmlns="http://www.w3.org/2000/svg">
<circle cx="31" cy="31" r="30.5" stroke="#363636"/>
<path d="M45 24.5385L41.5 22.6546M45 24.5385V27.7692M45 24.5385L41.5 26.4238M17 24.5385L20.5 22.6546M17 24.5385L20.5 26.4238M17 24.5385V27.7692M31 32.0769L34.5 30.193M31 32.0769L27.5 30.193M31 32.0769V35.3077M31 45L34.5 43.1161M31 45V41.7692M31 45L27.5 43.1161M27.5 18.8853L31 17L34.5 18.8853M45 34.2308V37.4615L41.5 39.3469M20.5 39.3469L17 37.4615V34.2308" stroke="#363636" stroke-width="2" stroke-linecap="round" stroke-linejoin="round"/>
</svg>
