<svg width="62" height="62" viewBox="0 0 62 62" fill="none" xmlns="http://www.w3.org/2000/svg">
<circle cx="31" cy="31" r="30.5" stroke="#363636"/>
<path d="M28.7143 37.25L23 31.9676L24.6149 30.4751L28.7143 34.2629L37.3829 26.25L39 27.7446L28.7143 37.25Z" fill="#363636"/>
<path d="M31 16C28.0333 16 25.1332 16.8797 22.6665 18.528C20.1997 20.1762 18.2771 22.5189 17.1418 25.2597C16.0065 28.0006 15.7094 31.0166 16.2882 33.9263C16.867 36.8361 18.2956 39.5088 20.3934 41.6066C22.4912 43.7044 25.1639 45.133 28.0736 45.7118C30.9834 46.2905 33.9994 45.9935 36.7403 44.8582C39.4811 43.7229 41.8238 41.8003 43.472 39.3335C45.1203 36.8668 46 33.9667 46 31C46 27.0217 44.4196 23.2064 41.6066 20.3934C38.7936 17.5804 34.9783 16 31 16ZM31 43.8571C28.4571 43.8571 25.9713 43.1031 23.857 41.6903C21.7426 40.2776 20.0947 38.2695 19.1216 35.9202C18.1484 33.5709 17.8938 30.9857 18.3899 28.4917C18.886 25.9977 20.1105 23.7067 21.9086 21.9086C23.7067 20.1105 25.9977 18.886 28.4917 18.3899C30.9857 17.8938 33.5709 18.1484 35.9202 19.1215C38.2696 20.0947 40.2776 21.7426 41.6903 23.857C43.1031 25.9713 43.8571 28.4571 43.8571 31C43.8571 34.4099 42.5026 37.6802 40.0914 40.0914C37.6802 42.5025 34.4099 43.8571 31 43.8571Z" fill="#363636"/>
</svg>
